<?xml version="1.0" standalone="no"?>
<!DOCTYPE svg PUBLIC "-//W3C//DTD SVG 20010904//EN"
 "http://www.w3.org/TR/2001/REC-SVG-20010904/DTD/svg10.dtd">
<svg version="1.0" xmlns="http://www.w3.org/2000/svg"
 width="260.000000pt" height="260.000000pt" viewBox="0 0 260.000000 260.000000"
 preserveAspectRatio="xMidYMid meet">
<metadata>
Created by potrace 1.11, written by Peter Selinger 2001-2013
</metadata>
<g transform="translate(0.000000,260.000000) scale(0.100000,-0.100000)"
fill="#000000" stroke="none">
<path d="M328 2185 c-1 -2 -21 -5 -43 -7 l-40 -4 -3 -336 -2 -336 22 -6 c13
-4 82 -9 153 -12 179 -6 267 19 327 91 25 30 41 108 33 165 -7 51 -48 110 -85
122 -12 4 -8 13 17 38 36 37 49 82 38 137 -19 105 -114 151 -309 151 -57 1
-106 -1 -108 -3z m241 -149 c12 -11 21 -31 21 -48 0 -42 -48 -68 -127 -68
l-63 0 0 71 0 71 74 -4 c55 -2 80 -8 95 -22z m28 -280 c12 -15 23 -39 23 -54
0 -62 -53 -92 -162 -92 l-58 0 0 91 0 92 87 -5 c79 -4 88 -7 110 -32z"/>
<path d="M910 1845 l0 -345 80 0 80 0 0 345 0 345 -80 0 -80 0 0 -345z"/>
<path d="M1230 1845 l0 -345 80 0 80 0 0 226 0 227 31 -39 c61 -77 146 -201
210 -306 l64 -108 68 0 67 0 0 345 0 345 -80 0 -80 0 -2 -199 -3 -200 -63 93
c-34 51 -101 141 -148 199 l-85 107 -70 0 -69 0 0 -345z"/>
<path d="M443 1075 c-91 -28 -158 -89 -201 -184 -21 -47 -26 -72 -26 -151 -1
-52 2 -109 5 -126 20 -96 92 -188 177 -226 67 -30 246 -32 355 -3 l27 7 0 174
0 174 -80 0 -79 0 -3 -117 -3 -118 -66 1 c-121 1 -173 66 -174 219 0 78 3 96
25 134 14 25 40 54 59 65 49 28 148 31 214 6 28 -11 52 -19 53 -17 11 14 42
123 36 128 -39 37 -241 59 -319 34z"/>
<path d="M1138 1070 c-148 -56 -218 -157 -224 -325 -6 -173 56 -290 191 -355
87 -42 237 -36 333 14 46 24 115 108 137 167 31 83 27 244 -7 319 -44 97 -110
156 -204 185 -62 19 -170 16 -226 -5z m196 -140 c71 -34 106 -109 103 -222 -4
-122 -63 -194 -169 -205 -43 -4 -61 0 -98 19 -138 75 -130 351 12 413 47 20
105 18 152 -5z"/>
</g>
</svg>
